<svg width="389" height="65" xmlns="http://www.w3.org/2000/svg"><g fill="#CFB2EA" fill-rule="evenodd"><path d="M8 1.57a8 8 0 014.287 1.244l36.482 23.153a8 8 0 01-.06 13.547L12.225 62.212A8 8 0 010 55.42V9.57a8 8 0 018-8zm8.125 10.423c-6.627 0-12 5.372-12 12V41.06a12 12 0 001.687 6.135c3.389 5.696 10.753 7.566 16.449 4.178l14.2-8.45a12 12 0 004.124-4.087c3.438-5.665 1.633-13.046-4.033-16.484L22.35 13.734a12 12 0 00-6.225-1.741z"/><path d="M34.31 35.073l-14.233 8.503A6 6 0 0111 38.426V24.683a6 6 0 019.122-5.124l14.218 8.665a4 4 0 01-.03 6.85z"/><path d="M102.848 54.876c1.627 0 2.628-1.027 2.628-2.706V12.608c0-2.115-1.408-3.484-3.535-3.484-1.939 0-3.159.933-4.034 2.986L83.363 47.007h-.25L68.538 12.11c-.876-2.084-2.033-2.986-3.941-2.986-2.158 0-3.597 1.4-3.597 3.484V52.17c0 1.68 1 2.706 2.627 2.706 1.627 0 2.628-1.027 2.628-2.706V19.855h.218l13.387 31.91c.688 1.618 1.751 2.364 3.378 2.364 1.626 0 2.658-.746 3.378-2.426l13.386-31.848h.22V52.17c0 1.68 1 2.706 2.626 2.706zM126.87 55c8.976 0 15.044-6.438 15.044-16.733 0-10.326-6.068-16.733-15.044-16.733-9.008 0-15.075 6.407-15.075 16.733 0 10.295 6.067 16.733 15.075 16.733zm0-4.759c-5.755 0-9.54-4.354-9.54-11.974s3.785-11.974 9.54-11.974c5.755 0 9.508 4.354 9.508 11.974s-3.753 11.974-9.508 11.974zM159.303 55c1.752 0 2.909-.87 3.628-2.737l10.322-26.841c.187-.467.281-.933.281-1.4 0-1.493-1.063-2.488-2.69-2.488-1.188 0-2.002.653-2.502 2.053l-8.945 25.1h-.125l-8.914-25.1c-.5-1.4-1.314-2.053-2.534-2.053-1.626 0-2.72.995-2.72 2.488 0 .467.093.933.28 1.4l10.353 26.841c.782 1.96 1.783 2.737 3.566 2.737zm22.019-38.349c1.877 0 3.41-1.524 3.41-3.359 0-1.866-1.533-3.359-3.41-3.359-1.845 0-3.378 1.493-3.378 3.36 0 1.834 1.533 3.358 3.378 3.358zm0 38.349c1.595 0 2.721-1.182 2.721-2.892V24.427c0-1.711-1.126-2.893-2.721-2.893-1.595 0-2.721 1.182-2.721 2.893v27.68c0 1.711 1.126 2.893 2.72 2.893zm23.708 0c5.942 0 10.509-2.488 12.604-6.874.25-.59.407-1.15.407-1.586 0-1.43-.97-2.364-2.408-2.364-.845 0-1.47.311-2.033 1.089-2.534 3.67-4.91 5.039-8.79 5.039-5.817 0-9.414-4.044-9.414-10.575h20.33c1.877 0 3.003-1.182 3.003-3.141 0-8.865-5.849-15.054-14.168-15.054-8.977 0-14.763 6.656-14.763 16.857 0 10.45 5.63 16.609 15.232 16.609zm8.07-19.501h-17.672c.344-5.567 3.972-9.268 9.039-9.268 5.035 0 8.507 3.67 8.632 9.268zm14.762 19.377c1.72 0 2.815-1.12 2.815-2.893V35.001h17.796c1.564 0 2.659-.995 2.659-2.488 0-1.493-1.095-2.488-2.659-2.488h-17.796V14.598h19.548c1.595 0 2.69-1.026 2.69-2.519s-1.095-2.52-2.69-2.52h-22.363c-1.72 0-2.815 1.12-2.815 2.893v39.531c0 1.773 1.095 2.893 2.815 2.893zm33.153-38.225c1.877 0 3.41-1.524 3.41-3.359 0-1.866-1.533-3.359-3.41-3.359-1.845 0-3.378 1.493-3.378 3.36 0 1.834 1.533 3.358 3.378 3.358zm0 38.349c1.595 0 2.721-1.182 2.721-2.892V24.427c0-1.711-1.126-2.893-2.72-2.893-1.596 0-2.722 1.182-2.722 2.893v27.68c0 1.711 1.126 2.893 2.721 2.893zm34.186 0c1.595 0 2.72-1.182 2.72-2.892V33.446c0-7.34-4.128-11.912-11.259-11.912-5.035 0-8.507 2.24-10.321 5.723h-.125V24.27c0-1.617-1.064-2.737-2.565-2.737s-2.565 1.12-2.565 2.737v27.837c0 1.71 1.126 2.892 2.721 2.892 1.596 0 2.722-1.182 2.722-2.892V35.406c0-5.474 3.346-9.082 8.476-9.082 5.004 0 7.475 2.861 7.475 8.086v17.698c0 1.71 1.126 2.892 2.72 2.892zm35.092 0c1.564 0 2.659-1.089 2.659-2.644V11.892c0-1.71-1.126-2.892-2.721-2.892-1.595 0-2.721 1.182-2.721 2.892V27.35h-.125c-1.94-3.545-5.693-5.816-10.353-5.816-8.194 0-13.793 6.594-13.793 16.733 0 10.14 5.63 16.733 13.918 16.733 5.098 0 8.476-2.488 10.259-6.345h.094v3.701c0 1.587 1.25 2.644 2.783 2.644zm-12.104-4.759c-5.755 0-9.383-4.634-9.383-11.974 0-7.309 3.628-11.974 9.383-11.974 5.599 0 9.352 4.758 9.352 11.974 0 7.247-3.753 11.974-9.352 11.974zM353.94 55c5.942 0 10.509-2.488 12.604-6.874.25-.59.407-1.15.407-1.586 0-1.43-.97-2.364-2.408-2.364-.845 0-1.47.311-2.033 1.089-2.534 3.67-4.91 5.039-8.79 5.039-5.817 0-9.414-4.044-9.414-10.575h20.33c1.877 0 3.003-1.182 3.003-3.141 0-8.865-5.849-15.054-14.168-15.054-8.977 0-14.763 6.656-14.763 16.857 0 10.45 5.63 16.609 15.232 16.609zm8.07-19.501h-17.672c.344-5.567 3.972-9.268 9.039-9.268 5.035 0 8.507 3.67 8.632 9.268zM375.831 55c1.596 0 2.722-1.182 2.722-2.892v-17.76c0-4.136 2.095-7.65 7.006-7.65 1.188 0 2.033-.219 2.596-.685.563-.436.844-1.058.844-1.897 0-.747-.219-1.369-.688-1.804-.532-.498-1.376-.778-2.565-.778-3.253 0-6.443 2.488-7.381 5.847h-.125v-3.11c0-1.617-1.064-2.737-2.565-2.737s-2.565 1.12-2.565 2.737v27.837c0 1.71 1.126 2.892 2.721 2.892z" fill-rule="nonzero"/></g></svg>