<svg width="412" height="88" xmlns="http://www.w3.org/2000/svg"><g fill="#7225BA" fill-rule="evenodd"><path d="M12 1.673a12 12 0 016.423 1.863l49.163 31.152c5.598 3.547 7.261 10.96 3.714 16.559a12 12 0 01-3.804 3.77L18.332 85.559c-5.63 3.497-13.028 1.768-16.525-3.861A12 12 0 010 75.365V13.673c0-6.627 5.373-12 12-12zm5.804 10.248c-6.627 0-12 5.373-12 12v41.183a12 12 0 001.683 6.128c3.385 5.698 10.747 7.574 16.445 4.189l34.322-20.387a12 12 0 004.135-4.1c3.434-5.667 1.623-13.046-4.045-16.48L24.022 13.657a12 12 0 00-6.218-1.737z"/><path d="M44.332 51.015L27.648 61.133a8 8 0 01-12.148-6.84V33.854a8 8 0 0112.208-6.803l16.684 10.32a8 8 0 01-.06 13.643z"/><path d="M125.188 65.437c1.624 0 2.624-1.03 2.624-2.718v-39.75c0-2.125-1.406-3.5-3.53-3.5-1.938 0-3.157.937-4.032 3L105.719 57.53h-.25L90.906 22.47c-.875-2.094-2.031-3-3.937-3-2.156 0-3.594 1.406-3.594 3.5v39.75c0 1.687 1 2.718 2.625 2.718s2.625-1.03 2.625-2.718V30.25h.219l13.375 32.062c.687 1.625 1.75 2.375 3.375 2.375s2.656-.75 3.375-2.437l13.375-32h.219v32.469c0 1.687 1 2.718 2.624 2.718zm24 .125c8.968 0 15.03-6.468 15.03-16.812 0-10.375-6.062-16.813-15.03-16.813-9 0-15.063 6.438-15.063 16.813 0 10.344 6.063 16.812 15.063 16.812zm0-4.78c-5.75 0-9.532-4.376-9.532-12.032s3.781-12.031 9.531-12.031 9.5 4.375 9.5 12.031c0 7.656-3.75 12.031-9.5 12.031zm32.406 4.78c1.75 0 2.906-.875 3.625-2.75l10.312-26.968c.188-.469.281-.938.281-1.407 0-1.5-1.062-2.5-2.687-2.5-1.188 0-2 .657-2.5 2.063l-8.938 25.219h-.125L172.656 34c-.5-1.406-1.312-2.063-2.531-2.063-1.625 0-2.719 1-2.719 2.5 0 .47.094.938.281 1.407l10.344 26.968c.781 1.97 1.781 2.75 3.563 2.75zm22-38.53c1.875 0 3.406-1.532 3.406-3.376 0-1.875-1.531-3.375-3.406-3.375a3.38 3.38 0 00-3.375 3.375c0 1.844 1.531 3.375 3.375 3.375zm0 38.53c1.594 0 2.719-1.187 2.719-2.906V34.844c0-1.719-1.125-2.907-2.72-2.907-1.593 0-2.718 1.188-2.718 2.907v27.812c0 1.719 1.125 2.906 2.719 2.906zm23.687 0c5.938 0 10.5-2.5 12.594-6.906.25-.594.406-1.156.406-1.594 0-1.437-.969-2.375-2.406-2.375-.844 0-1.469.313-2.031 1.094-2.531 3.688-4.906 5.063-8.781 5.063-5.813 0-9.407-4.063-9.407-10.625h20.313c1.875 0 3-1.188 3-3.157 0-8.906-5.844-15.125-14.156-15.125-8.97 0-14.75 6.688-14.75 16.938 0 10.5 5.625 16.687 15.218 16.687zm8.063-19.593h-17.656c.343-5.594 3.968-9.313 9.03-9.313 5.032 0 8.5 3.688 8.626 9.313zm14.75 19.468c1.719 0 2.812-1.125 2.812-2.906V45.47h17.781c1.563 0 2.657-1 2.657-2.5s-1.094-2.5-2.656-2.5h-17.782v-15.5h19.531c1.594 0 2.688-1.032 2.688-2.532s-1.094-2.53-2.688-2.53h-22.343c-1.719 0-2.813 1.124-2.813 2.905v39.72c0 1.78 1.094 2.905 2.813 2.905zm33.125-38.406c1.875 0 3.406-1.531 3.406-3.375 0-1.875-1.531-3.375-3.406-3.375a3.38 3.38 0 00-3.375 3.375c0 1.844 1.531 3.375 3.375 3.375zm0 38.531c1.594 0 2.719-1.187 2.719-2.906V34.844c0-1.719-1.125-2.907-2.72-2.907-1.593 0-2.718 1.188-2.718 2.907v27.812c0 1.719 1.125 2.906 2.719 2.906zm34.156 0c1.594 0 2.719-1.187 2.719-2.906v-18.75c0-7.375-4.125-11.969-11.25-11.969-5.031 0-8.5 2.25-10.313 5.75h-.125v-3c0-1.625-1.062-2.75-2.562-2.75-1.5 0-2.563 1.125-2.563 2.75v27.97c0 1.718 1.125 2.905 2.719 2.905 1.594 0 2.719-1.187 2.719-2.906V45.875c0-5.5 3.344-9.125 8.469-9.125 5 0 7.468 2.875 7.468 8.125v17.781c0 1.719 1.125 2.906 2.719 2.906zm35.063 0c1.562 0 2.656-1.093 2.656-2.656V22.25c0-1.719-1.125-2.906-2.719-2.906-1.594 0-2.719 1.187-2.719 2.906v15.531h-.125c-1.937-3.562-5.687-5.844-10.344-5.844-8.187 0-13.78 6.625-13.78 16.813 0 10.187 5.624 16.812 13.906 16.812 5.093 0 8.468-2.5 10.25-6.375h.093v3.72c0 1.593 1.25 2.655 2.781 2.655zm-12.094-4.78c-5.75 0-9.375-4.657-9.375-12.032 0-7.344 3.625-12.031 9.375-12.031 5.594 0 9.344 4.781 9.344 12.031 0 7.281-3.75 12.031-9.344 12.031zm35.719 4.78c5.937 0 10.5-2.5 12.593-6.906.25-.594.406-1.156.406-1.594 0-1.437-.968-2.375-2.406-2.375-.844 0-1.469.313-2.031 1.094-2.531 3.688-4.906 5.063-8.781 5.063-5.813 0-9.406-4.063-9.406-10.625h20.312c1.875 0 3-1.188 3-3.157 0-8.906-5.844-15.125-14.156-15.125-8.969 0-14.75 6.688-14.75 16.938 0 10.5 5.625 16.687 15.219 16.687zm8.062-19.593h-17.656c.344-5.594 3.969-9.313 9.031-9.313 5.031 0 8.5 3.688 8.625 9.313zm13.813 19.593c1.593 0 2.718-1.187 2.718-2.906V44.812c0-4.156 2.094-7.687 7-7.687 1.188 0 2.031-.219 2.594-.688.563-.437.844-1.062.844-1.906 0-.75-.219-1.375-.688-1.812-.531-.5-1.375-.782-2.562-.782-3.25 0-6.438 2.5-7.375 5.875h-.125v-3.125c0-1.625-1.063-2.75-2.563-2.75-1.5 0-2.562 1.125-2.562 2.75v27.97c0 1.718 1.125 2.905 2.719 2.905z" fill-rule="nonzero"/></g></svg>