<svg width="200" height="300" xmlns="http://www.w3.org/2000/svg"><g fill="none" fill-rule="evenodd"><path fill="#333" d="M0 0h200v300H0z"/><g fill="#CFB2EA"><path d="M84 90.57a8 8 0 014.287 1.244l36.482 23.153a8 8 0 01-.06 13.547l-36.483 22.698A8 8 0 0176 144.42V98.57a8 8 0 018-8zm8.125 10.423c-6.627 0-12 5.372-12 12v17.067a12 12 0 001.687 6.135c3.389 5.696 10.753 7.566 16.449 4.178l14.2-8.45a12 12 0 004.124-4.087c3.438-5.665 1.633-13.046-4.033-16.484l-14.202-8.618a12 12 0 00-6.225-1.741z"/><path d="M110.31 124.073l-14.233 8.503a6 6 0 01-9.077-5.15v-13.743a6 6 0 019.122-5.124l14.218 8.665a4 4 0 01-.03 6.85z"/></g><path d="M34.215 214v-15.464c-.006-1.312-.044-2.178-.117-2.598h.088c.175.46.4.899.673 1.319L45.67 214h3.019v-21.006h-2.461v14.795c0 1.455.048 2.485.146 3.09h-.059c-.127-.253-.41-.722-.85-1.405l-10.517-16.48h-3.193V214h2.46zm25.928.352c2.275 0 4.089-.72 5.441-2.161 1.353-1.44 2.03-3.357 2.03-5.75 0-2.441-.628-4.35-1.883-5.727-1.255-1.377-3-2.066-5.237-2.066-2.344 0-4.204.708-5.58 2.124-1.378 1.416-2.066 3.384-2.066 5.904 0 2.314.661 4.172 1.985 5.574 1.323 1.4 3.093 2.102 5.31 2.102zm.175-2.022c-1.523 0-2.739-.513-3.647-1.538-.908-1.025-1.362-2.427-1.362-4.204 0-1.846.449-3.294 1.347-4.343.899-1.05 2.12-1.575 3.662-1.575 1.553 0 2.747.508 3.582 1.523.835 1.016 1.252 2.461 1.252 4.336 0 1.856-.417 3.286-1.252 4.292-.835 1.006-2.029 1.51-3.582 1.51zm15.85 1.992c.928 0 1.675-.156 2.241-.468v-2.051c-.44.332-.962.498-1.567.498-.791 0-1.358-.215-1.7-.645-.341-.43-.512-1.147-.512-2.153v-8.452h3.78V199h-3.78v-4.438l-2.402.776V199h-2.579v2.05h2.579v8.878c0 2.93 1.313 4.394 3.94 4.394zm16.45-.322v-9.302h7.588v-2.212h-7.588v-7.265h8.203v-2.227H90.157V214h2.461zm18.135.352c2.275 0 4.09-.72 5.442-2.161 1.352-1.44 2.029-3.357 2.029-5.75 0-2.441-.628-4.35-1.883-5.727-1.255-1.377-3-2.066-5.237-2.066-2.343 0-4.204.708-5.58 2.124-1.378 1.416-2.066 3.384-2.066 5.904 0 2.314.662 4.172 1.985 5.574 1.323 1.4 3.093 2.102 5.31 2.102zm.176-2.022c-1.524 0-2.74-.513-3.648-1.538-.908-1.025-1.362-2.427-1.362-4.204 0-1.846.45-3.294 1.348-4.343.898-1.05 2.119-1.575 3.662-1.575 1.552 0 2.746.508 3.581 1.523.835 1.016 1.253 2.461 1.253 4.336 0 1.856-.418 3.286-1.253 4.292-.835 1.006-2.029 1.51-3.581 1.51zm16.172 2.022c2.09 0 3.632-.909 4.628-2.725h.06V214h2.401v-15h-2.402v8.643c0 1.396-.378 2.526-1.135 3.39-.757.865-1.721 1.297-2.893 1.297-2.422 0-3.633-1.582-3.633-4.746V199h-2.388v8.965c0 4.258 1.787 6.387 5.362 6.387zm14.34-.352v-8.555c0-1.377.393-2.517 1.18-3.42.786-.903 1.78-1.355 2.98-1.355 2.325 0 3.487 1.592 3.487 4.775V214h2.402v-9.17c0-2.002-.434-3.533-1.303-4.592-.87-1.06-2.125-1.59-3.765-1.59-2.149 0-3.79.948-4.922 2.842h-.059V199h-2.402v15h2.402zm19.761.352c2.324 0 4.043-.967 5.156-2.9h.059V214h2.402v-22.207h-2.402v9.287h-.059c-.937-1.621-2.436-2.432-4.497-2.432-2.08 0-3.745.748-4.995 2.242s-1.875 3.481-1.875 5.962c0 2.314.564 4.143 1.692 5.485 1.128 1.343 2.634 2.015 4.52 2.015zm.703-2.022c-1.357 0-2.439-.5-3.244-1.501-.806-1.001-1.209-2.366-1.209-4.095 0-1.894.42-3.379 1.26-4.453.84-1.074 1.992-1.611 3.457-1.611 1.23 0 2.246.42 3.047 1.26.8.84 1.201 1.865 1.201 3.076v2.212c0 1.474-.417 2.695-1.252 3.662-.835.967-1.922 1.45-3.26 1.45z" fill="#CFB2EA" fill-rule="nonzero"/></g></svg>